# xmcd
#
# Track frame offsets:
#	150
#	16217
#	32232
#	47780
#	61598
#	74462
#	85343
#	100227
#	118367
#	130585
#	143498
#	158082
#	173672
#	187478
#	203525
#	217610
#	229105
#	242225
#	256187
#	269320
#
# Disc length: 3771 seconds
#
# Revision: 2
# Processed by: cddbd v1.5.2PL0 Copyright (c) Steve Scherf et al.
# Submitted via: VUPlayer 2.49
#
DISCID=130eb914
DTITLE=Various Artist - Das Goldene ABC der Volksmusik Vol.1 CD-2
DYEAR=1999
DGENRE=Schlager
TTITLE0=Stefanie Hertel - Hast du zeit für ein paar Träume
TTITLE1=Judith und Mel - Die zehn Gebote der Liebe
TTITLE2=Oswald Sattler - Ciao Maria Ciao
TTITLE3=Katharina Hertz und Torsten Benkenstein - Addio
TTITLE4=Lydia Huber - Sag Dankeschön mit roten Rosen
TTITLE5=Wolfgang Lindner u. s. Stadlmusikanten - Musik und gute lLune
TTITLE6=Lolita - Denn mein Junge ist ein Seeman
TTITLE7=Monika Martin - La Luna Blu
TTITLE8=Die Mühlenhof Musikanten - Das da drob'n ist unser Stern
TTITLE9=Enst Mosch u. s. Original Egerländer Musikanten - Böhnischer Leckerbisse
TTITLE9=n
TTITLE10=Münchner Zwietracht - Juchuhe
TTITLE11=Teddy Parker - Ein Mutterherz soll niemals weinen
TTITLE12=Angela Wiedl - Doch des Herzklopf'n des verdank' I dir
TTITLE13=Walter Scholtz - Gondoletta
TTITLE14=Vico Torriani - Zähl' die Freunde, nicht die Jahre
TTITLE15=florian Silbereisen - Lustig Samma
TTITLE16=Oliver Thomas - Ich kann kein Mädchen weinen sehen
TTITLE17=Turracher - Des moch I
TTITLE18=Die Zillertaler - Du bist so a lieber Kerl
TTITLE19=Die 3 Z'wiedern - Heit' ist mei Tag
EXTD=
EXTT0=
EXTT1=
EXTT2=
EXTT3=
EXTT4=
EXTT5=
EXTT6=
EXTT7=
EXTT8=
EXTT9=
EXTT10=
EXTT11=
EXTT12=
EXTT13=
EXTT14=
EXTT15=
EXTT16=
EXTT17=
EXTT18=
EXTT19=
PLAYORDER=
